<svg xmlns="http://www.w3.org/2000/svg" viewBox="0 0 190 100" role="img" aria-label="United States flag">
  <rect width="190" height="100" fill="#fff"/>
  <g fill="#b22234">
    <rect width="190" height="7.692"/>
    <rect y="15.385" width="190" height="7.692"/>
    <rect y="30.769" width="190" height="7.692"/>
    <rect y="46.154" width="190" height="7.692"/>
    <rect y="61.538" width="190" height="7.692"/>
    <rect y="76.923" width="190" height="7.692"/>
    <rect y="92.308" width="190" height="7.692"/>
  </g>
  <rect width="76" height="53.846" fill="#3c3b6e"/>
  <g fill="#fff">
    <path d="M0 -1 L0.2245 -0.309 L0.9511 -0.309 L0.3633 0.118 L0.5878 0.809 L0 0.382 L-0.5878 0.809 L-0.3633 0.118 L-0.9511 -0.309 L-0.2245 -0.309 Z" transform="translate(6.333 5.385) scale(2.1)"/>
    <path d="M0 -1 L0.2245 -0.309 L0.9511 -0.309 L0.3633 0.118 L0.5878 0.809 L0 0.382 L-0.5878 0.809 L-0.3633 0.118 L-0.9511 -0.309 L-0.2245 -0.309 Z" transform="translate(19 5.385) scale(2.1)"/>
    <path d="M0 -1 L0.2245 -0.309 L0.9511 -0.309 L0.3633 0.118 L0.5878 0.809 L0 0.382 L-0.5878 0.809 L-0.3633 0.118 L-0.9511 -0.309 L-0.2245 -0.309 Z" transform="translate(31.667 5.385) scale(2.1)"/>
    <path d="M0 -1 L0.2245 -0.309 L0.9511 -0.309 L0.3633 0.118 L0.5878 0.809 L0 0.382 L-0.5878 0.809 L-0.3633 0.118 L-0.9511 -0.309 L-0.2245 -0.309 Z" transform="translate(44.333 5.385) scale(2.1)"/>
    <path d="M0 -1 L0.2245 -0.309 L0.9511 -0.309 L0.3633 0.118 L0.5878 0.809 L0 0.382 L-0.5878 0.809 L-0.3633 0.118 L-0.9511 -0.309 L-0.2245 -0.309 Z" transform="translate(57 5.385) scale(2.1)"/>
    <path d="M0 -1 L0.2245 -0.309 L0.9511 -0.309 L0.3633 0.118 L0.5878 0.809 L0 0.382 L-0.5878 0.809 L-0.3633 0.118 L-0.9511 -0.309 L-0.2245 -0.309 Z" transform="translate(69.667 5.385) scale(2.1)"/>
    <path d="M0 -1 L0.2245 -0.309 L0.9511 -0.309 L0.3633 0.118 L0.5878 0.809 L0 0.382 L-0.5878 0.809 L-0.3633 0.118 L-0.9511 -0.309 L-0.2245 -0.309 Z" transform="translate(12.667 10.769) scale(2.1)"/>
    <path d="M0 -1 L0.2245 -0.309 L0.9511 -0.309 L0.3633 0.118 L0.5878 0.809 L0 0.382 L-0.5878 0.809 L-0.3633 0.118 L-0.9511 -0.309 L-0.2245 -0.309 Z" transform="translate(25.333 10.769) scale(2.1)"/>
    <path d="M0 -1 L0.2245 -0.309 L0.9511 -0.309 L0.3633 0.118 L0.5878 0.809 L0 0.382 L-0.5878 0.809 L-0.3633 0.118 L-0.9511 -0.309 L-0.2245 -0.309 Z" transform="translate(38 10.769) scale(2.1)"/>
    <path d="M0 -1 L0.2245 -0.309 L0.9511 -0.309 L0.3633 0.118 L0.5878 0.809 L0 0.382 L-0.5878 0.809 L-0.3633 0.118 L-0.9511 -0.309 L-0.2245 -0.309 Z" transform="translate(50.667 10.769) scale(2.1)"/>
    <path d="M0 -1 L0.2245 -0.309 L0.9511 -0.309 L0.3633 0.118 L0.5878 0.809 L0 0.382 L-0.5878 0.809 L-0.3633 0.118 L-0.9511 -0.309 L-0.2245 -0.309 Z" transform="translate(63.333 10.769) scale(2.1)"/>
    <path d="M0 -1 L0.2245 -0.309 L0.9511 -0.309 L0.3633 0.118 L0.5878 0.809 L0 0.382 L-0.5878 0.809 L-0.3633 0.118 L-0.9511 -0.309 L-0.2245 -0.309 Z" transform="translate(6.333 16.154) scale(2.1)"/>
    <path d="M0 -1 L0.2245 -0.309 L0.9511 -0.309 L0.3633 0.118 L0.5878 0.809 L0 0.382 L-0.5878 0.809 L-0.3633 0.118 L-0.9511 -0.309 L-0.2245 -0.309 Z" transform="translate(19 16.154) scale(2.1)"/>
    <path d="M0 -1 L0.2245 -0.309 L0.9511 -0.309 L0.3633 0.118 L0.5878 0.809 L0 0.382 L-0.5878 0.809 L-0.3633 0.118 L-0.9511 -0.309 L-0.2245 -0.309 Z" transform="translate(31.667 16.154) scale(2.1)"/>
    <path d="M0 -1 L0.2245 -0.309 L0.9511 -0.309 L0.3633 0.118 L0.5878 0.809 L0 0.382 L-0.5878 0.809 L-0.3633 0.118 L-0.9511 -0.309 L-0.2245 -0.309 Z" transform="translate(44.333 16.154) scale(2.1)"/>
    <path d="M0 -1 L0.2245 -0.309 L0.9511 -0.309 L0.3633 0.118 L0.5878 0.809 L0 0.382 L-0.5878 0.809 L-0.3633 0.118 L-0.9511 -0.309 L-0.2245 -0.309 Z" transform="translate(57 16.154) scale(2.1)"/>
    <path d="M0 -1 L0.2245 -0.309 L0.9511 -0.309 L0.3633 0.118 L0.5878 0.809 L0 0.382 L-0.5878 0.809 L-0.3633 0.118 L-0.9511 -0.309 L-0.2245 -0.309 Z" transform="translate(69.667 16.154) scale(2.1)"/>
    <path d="M0 -1 L0.2245 -0.309 L0.9511 -0.309 L0.3633 0.118 L0.5878 0.809 L0 0.382 L-0.5878 0.809 L-0.3633 0.118 L-0.9511 -0.309 L-0.2245 -0.309 Z" transform="translate(12.667 21.538) scale(2.1)"/>
    <path d="M0 -1 L0.2245 -0.309 L0.9511 -0.309 L0.3633 0.118 L0.5878 0.809 L0 0.382 L-0.5878 0.809 L-0.3633 0.118 L-0.9511 -0.309 L-0.2245 -0.309 Z" transform="translate(25.333 21.538) scale(2.1)"/>
    <path d="M0 -1 L0.2245 -0.309 L0.9511 -0.309 L0.3633 0.118 L0.5878 0.809 L0 0.382 L-0.5878 0.809 L-0.3633 0.118 L-0.9511 -0.309 L-0.2245 -0.309 Z" transform="translate(38 21.538) scale(2.1)"/>
    <path d="M0 -1 L0.2245 -0.309 L0.9511 -0.309 L0.3633 0.118 L0.5878 0.809 L0 0.382 L-0.5878 0.809 L-0.3633 0.118 L-0.9511 -0.309 L-0.2245 -0.309 Z" transform="translate(50.667 21.538) scale(2.1)"/>
    <path d="M0 -1 L0.2245 -0.309 L0.9511 -0.309 L0.3633 0.118 L0.5878 0.809 L0 0.382 L-0.5878 0.809 L-0.3633 0.118 L-0.9511 -0.309 L-0.2245 -0.309 Z" transform="translate(63.333 21.538) scale(2.1)"/>
    <path d="M0 -1 L0.2245 -0.309 L0.9511 -0.309 L0.3633 0.118 L0.5878 0.809 L0 0.382 L-0.5878 0.809 L-0.3633 0.118 L-0.9511 -0.309 L-0.2245 -0.309 Z" transform="translate(6.333 26.923) scale(2.1)"/>
    <path d="M0 -1 L0.2245 -0.309 L0.9511 -0.309 L0.3633 0.118 L0.5878 0.809 L0 0.382 L-0.5878 0.809 L-0.3633 0.118 L-0.9511 -0.309 L-0.2245 -0.309 Z" transform="translate(19 26.923) scale(2.1)"/>
    <path d="M0 -1 L0.2245 -0.309 L0.9511 -0.309 L0.3633 0.118 L0.5878 0.809 L0 0.382 L-0.5878 0.809 L-0.3633 0.118 L-0.9511 -0.309 L-0.2245 -0.309 Z" transform="translate(31.667 26.923) scale(2.1)"/>
    <path d="M0 -1 L0.2245 -0.309 L0.9511 -0.309 L0.3633 0.118 L0.5878 0.809 L0 0.382 L-0.5878 0.809 L-0.3633 0.118 L-0.9511 -0.309 L-0.2245 -0.309 Z" transform="translate(44.333 26.923) scale(2.1)"/>
    <path d="M0 -1 L0.2245 -0.309 L0.9511 -0.309 L0.3633 0.118 L0.5878 0.809 L0 0.382 L-0.5878 0.809 L-0.3633 0.118 L-0.9511 -0.309 L-0.2245 -0.309 Z" transform="translate(57 26.923) scale(2.1)"/>
    <path d="M0 -1 L0.2245 -0.309 L0.9511 -0.309 L0.3633 0.118 L0.5878 0.809 L0 0.382 L-0.5878 0.809 L-0.3633 0.118 L-0.9511 -0.309 L-0.2245 -0.309 Z" transform="translate(69.667 26.923) scale(2.1)"/>
    <path d="M0 -1 L0.2245 -0.309 L0.9511 -0.309 L0.3633 0.118 L0.5878 0.809 L0 0.382 L-0.5878 0.809 L-0.3633 0.118 L-0.9511 -0.309 L-0.2245 -0.309 Z" transform="translate(12.667 32.308) scale(2.1)"/>
    <path d="M0 -1 L0.2245 -0.309 L0.9511 -0.309 L0.3633 0.118 L0.5878 0.809 L0 0.382 L-0.5878 0.809 L-0.3633 0.118 L-0.9511 -0.309 L-0.2245 -0.309 Z" transform="translate(25.333 32.308) scale(2.1)"/>
    <path d="M0 -1 L0.2245 -0.309 L0.9511 -0.309 L0.3633 0.118 L0.5878 0.809 L0 0.382 L-0.5878 0.809 L-0.3633 0.118 L-0.9511 -0.309 L-0.2245 -0.309 Z" transform="translate(38 32.308) scale(2.1)"/>
    <path d="M0 -1 L0.2245 -0.309 L0.9511 -0.309 L0.3633 0.118 L0.5878 0.809 L0 0.382 L-0.5878 0.809 L-0.3633 0.118 L-0.9511 -0.309 L-0.2245 -0.309 Z" transform="translate(50.667 32.308) scale(2.1)"/>
    <path d="M0 -1 L0.2245 -0.309 L0.9511 -0.309 L0.3633 0.118 L0.5878 0.809 L0 0.382 L-0.5878 0.809 L-0.3633 0.118 L-0.9511 -0.309 L-0.2245 -0.309 Z" transform="translate(63.333 32.308) scale(2.1)"/>
    <path d="M0 -1 L0.2245 -0.309 L0.9511 -0.309 L0.3633 0.118 L0.5878 0.809 L0 0.382 L-0.5878 0.809 L-0.3633 0.118 L-0.9511 -0.309 L-0.2245 -0.309 Z" transform="translate(6.333 37.692) scale(2.1)"/>
    <path d="M0 -1 L0.2245 -0.309 L0.9511 -0.309 L0.3633 0.118 L0.5878 0.809 L0 0.382 L-0.5878 0.809 L-0.3633 0.118 L-0.9511 -0.309 L-0.2245 -0.309 Z" transform="translate(19 37.692) scale(2.1)"/>
    <path d="M0 -1 L0.2245 -0.309 L0.9511 -0.309 L0.3633 0.118 L0.5878 0.809 L0 0.382 L-0.5878 0.809 L-0.3633 0.118 L-0.9511 -0.309 L-0.2245 -0.309 Z" transform="translate(31.667 37.692) scale(2.1)"/>
    <path d="M0 -1 L0.2245 -0.309 L0.9511 -0.309 L0.3633 0.118 L0.5878 0.809 L0 0.382 L-0.5878 0.809 L-0.3633 0.118 L-0.9511 -0.309 L-0.2245 -0.309 Z" transform="translate(44.333 37.692) scale(2.1)"/>
    <path d="M0 -1 L0.2245 -0.309 L0.9511 -0.309 L0.3633 0.118 L0.5878 0.809 L0 0.382 L-0.5878 0.809 L-0.3633 0.118 L-0.9511 -0.309 L-0.2245 -0.309 Z" transform="translate(57 37.692) scale(2.1)"/>
    <path d="M0 -1 L0.2245 -0.309 L0.9511 -0.309 L0.3633 0.118 L0.5878 0.809 L0 0.382 L-0.5878 0.809 L-0.3633 0.118 L-0.9511 -0.309 L-0.2245 -0.309 Z" transform="translate(69.667 37.692) scale(2.1)"/>
    <path d="M0 -1 L0.2245 -0.309 L0.9511 -0.309 L0.3633 0.118 L0.5878 0.809 L0 0.382 L-0.5878 0.809 L-0.3633 0.118 L-0.9511 -0.309 L-0.2245 -0.309 Z" transform="translate(12.667 43.077) scale(2.1)"/>
    <path d="M0 -1 L0.2245 -0.309 L0.9511 -0.309 L0.3633 0.118 L0.5878 0.809 L0 0.382 L-0.5878 0.809 L-0.3633 0.118 L-0.9511 -0.309 L-0.2245 -0.309 Z" transform="translate(25.333 43.077) scale(2.1)"/>
    <path d="M0 -1 L0.2245 -0.309 L0.9511 -0.309 L0.3633 0.118 L0.5878 0.809 L0 0.382 L-0.5878 0.809 L-0.3633 0.118 L-0.9511 -0.309 L-0.2245 -0.309 Z" transform="translate(38 43.077) scale(2.1)"/>
    <path d="M0 -1 L0.2245 -0.309 L0.9511 -0.309 L0.3633 0.118 L0.5878 0.809 L0 0.382 L-0.5878 0.809 L-0.3633 0.118 L-0.9511 -0.309 L-0.2245 -0.309 Z" transform="translate(50.667 43.077) scale(2.1)"/>
    <path d="M0 -1 L0.2245 -0.309 L0.9511 -0.309 L0.3633 0.118 L0.5878 0.809 L0 0.382 L-0.5878 0.809 L-0.3633 0.118 L-0.9511 -0.309 L-0.2245 -0.309 Z" transform="translate(63.333 43.077) scale(2.1)"/>
    <path d="M0 -1 L0.2245 -0.309 L0.9511 -0.309 L0.3633 0.118 L0.5878 0.809 L0 0.382 L-0.5878 0.809 L-0.3633 0.118 L-0.9511 -0.309 L-0.2245 -0.309 Z" transform="translate(6.333 48.462) scale(2.1)"/>
    <path d="M0 -1 L0.2245 -0.309 L0.9511 -0.309 L0.3633 0.118 L0.5878 0.809 L0 0.382 L-0.5878 0.809 L-0.3633 0.118 L-0.9511 -0.309 L-0.2245 -0.309 Z" transform="translate(19 48.462) scale(2.1)"/>
    <path d="M0 -1 L0.2245 -0.309 L0.9511 -0.309 L0.3633 0.118 L0.5878 0.809 L0 0.382 L-0.5878 0.809 L-0.3633 0.118 L-0.9511 -0.309 L-0.2245 -0.309 Z" transform="translate(31.667 48.462) scale(2.1)"/>
    <path d="M0 -1 L0.2245 -0.309 L0.9511 -0.309 L0.3633 0.118 L0.5878 0.809 L0 0.382 L-0.5878 0.809 L-0.3633 0.118 L-0.9511 -0.309 L-0.2245 -0.309 Z" transform="translate(44.333 48.462) scale(2.1)"/>
    <path d="M0 -1 L0.2245 -0.309 L0.9511 -0.309 L0.3633 0.118 L0.5878 0.809 L0 0.382 L-0.5878 0.809 L-0.3633 0.118 L-0.9511 -0.309 L-0.2245 -0.309 Z" transform="translate(57 48.462) scale(2.1)"/>
    <path d="M0 -1 L0.2245 -0.309 L0.9511 -0.309 L0.3633 0.118 L0.5878 0.809 L0 0.382 L-0.5878 0.809 L-0.3633 0.118 L-0.9511 -0.309 L-0.2245 -0.309 Z" transform="translate(69.667 48.462) scale(2.1)"/>
  </g>
</svg>
