<svg xmlns="http://www.w3.org/2000/svg" viewBox="0 0 512 512" role="img" aria-label="Pyrita route mark">
  <defs>
    <radialGradient id="bg" cx="45%" cy="36%" r="78%">
      <stop offset="0" stop-color="#1B2730"/>
      <stop offset="0.58" stop-color="#0D1117"/>
      <stop offset="1" stop-color="#050608"/>
    </radialGradient>
    <linearGradient id="routeGold" x1="139" y1="111" x2="370" y2="394" gradientUnits="userSpaceOnUse">
      <stop offset="0" stop-color="#FFE8A3"/>
      <stop offset="0.42" stop-color="#F4B33C"/>
      <stop offset="1" stop-color="#C66522"/>
    </linearGradient>
    <linearGradient id="cyan" x1="134" y1="151" x2="380" y2="338" gradientUnits="userSpaceOnUse">
      <stop offset="0" stop-color="#A9F4FF"/>
      <stop offset="1" stop-color="#23A6D5"/>
    </linearGradient>
    <filter id="glow" x="-40%" y="-40%" width="180%" height="180%">
      <feGaussianBlur stdDeviation="14"/>
    </filter>
  </defs>
  <path d="M158 328 C206 392 310 397 358 330 C401 270 376 184 309 154 C248 126 174 154 145 216"
        fill="none" stroke="#34C6F4" stroke-width="48" stroke-linecap="round" opacity="0.22" filter="url(#glow)"/>
  <path d="M158 328 C206 392 310 397 358 330 C401 270 376 184 309 154 C248 126 174 154 145 216"
        fill="none" stroke="url(#cyan)" stroke-width="28" stroke-linecap="round"/>
  <path d="M154 330 C210 381 299 365 333 302 C363 245 331 180 270 171"
        fill="none" stroke="#0C1117" stroke-width="70" stroke-linecap="round"/>
  <path d="M154 330 C210 381 299 365 333 302 C363 245 331 180 270 171"
        fill="none" stroke="url(#routeGold)" stroke-width="38" stroke-linecap="round"/>
  <path d="M170 183 258 132 346 183 346 285 258 336 170 285Z" fill="#10151B"/>
  <path d="M258 132 346 183 258 234 170 183Z" fill="#FFE8A3"/>
  <path d="M170 183 258 234 258 336 170 285Z" fill="#B8651F"/>
  <path d="M346 183 258 234 258 336 346 285Z" fill="#F0A63A"/>
  <circle cx="158" cy="328" r="34" fill="#111820" stroke="#8AEFFF" stroke-width="10"/>
  <circle cx="158" cy="328" r="13" fill="#D9FBFF"/>
  <circle cx="366" cy="190" r="24" fill="#111820" stroke="#F9C151" stroke-width="9"/>
  <circle cx="366" cy="190" r="9" fill="#FFF4C0"/>
</svg>
