<svg xmlns="http://www.w3.org/2000/svg" viewBox="0 0 320 96" width="320" height="96" aria-label="Pyrita">
  <defs>
    <linearGradient id="lk2-top" x1="0" y1="0" x2="0" y2="1">
      <stop offset="0%" stop-color="#F2D58A"></stop><stop offset="100%" stop-color="#C99A3F"></stop>
    </linearGradient>
    <linearGradient id="lk2-l" x1="0" y1="0" x2="0" y2="1">
      <stop offset="0%" stop-color="#B6822E"></stop><stop offset="100%" stop-color="#7A5519"></stop>
    </linearGradient>
    <linearGradient id="lk2-r" x1="0" y1="0" x2="0" y2="1">
      <stop offset="0%" stop-color="#D8A044"></stop><stop offset="100%" stop-color="#965E1B"></stop>
    </linearGradient>
    <radialGradient id="lk2-core" cx="50%" cy="50%" r="60%">
      <stop offset="0%" stop-color="#FFD79A"></stop><stop offset="35%" stop-color="#F08A3A"></stop><stop offset="100%" stop-color="#C44E1B"></stop>
    </radialGradient>
  </defs>
  <g transform="translate(0,0)" stroke="#3A2510" stroke-width="0.9" stroke-linejoin="round">
    <ellipse cx="48" cy="50" rx="22" ry="13" fill="#E8643A" opacity=".22"></ellipse>
    <g><polygon points="40,16 56,22 56,34 40,28" fill="url(#lk2-r)"></polygon><polygon points="40,16 24,22 40,28 56,22" fill="url(#lk2-top)"></polygon><polygon points="24,22 40,28 40,40 24,34" fill="url(#lk2-l)"></polygon></g>
    <g><polygon points="20,30 36,36 36,48 20,42" fill="url(#lk2-r)"></polygon><polygon points="20,30 4,36 20,42 36,36" fill="url(#lk2-top)"></polygon><polygon points="4,36 20,42 20,54 4,48" fill="url(#lk2-l)"></polygon></g>
    <g><polygon points="76,30 92,36 76,42 60,36" fill="url(#lk2-top)"></polygon><polygon points="76,30 60,36 60,48 76,42" fill="url(#lk2-l)"></polygon><polygon points="92,36 76,42 76,54 92,48" fill="url(#lk2-r)"></polygon></g>
    <g><polygon points="48,40 58,44 58,52 48,48" fill="url(#lk2-core)"></polygon><polygon points="48,40 38,44 48,48 58,44" fill="#FFB766"></polygon><polygon points="38,44 48,48 48,56 38,52" fill="#C44E1B"></polygon></g>
    <g><polygon points="28,52 44,58 44,72 28,66" fill="url(#lk2-r)"></polygon><polygon points="28,52 12,58 28,66 44,58" fill="url(#lk2-top)"></polygon><polygon points="12,58 28,66 28,80 12,72" fill="url(#lk2-l)"></polygon></g>
    <g><polygon points="48,58 64,64 64,76 48,70" fill="url(#lk2-r)"></polygon><polygon points="48,58 32,64 48,70 64,64" fill="url(#lk2-top)"></polygon><polygon points="32,64 48,70 48,84 32,76" fill="url(#lk2-l)"></polygon></g>
    <g><polygon points="68,52 84,58 84,72 68,66" fill="url(#lk2-r)"></polygon><polygon points="68,52 52,58 68,66 84,58" fill="url(#lk2-top)"></polygon><polygon points="52,58 68,66 68,80 52,72" fill="url(#lk2-l)"></polygon></g>
  </g>
  <text x="110" y="62" font-family="Manrope, system-ui, sans-serif" font-weight="700" font-size="42" letter-spacing="-0.025em" fill="currentColor">Pyrita</text>
</svg>